G04*
G04 #@! TF.GenerationSoftware,Altium Limited,Altium Designer,26.3.0 (6)*
G04*
G04 Layer_Physical_Order=2*
G04 Layer_Color=16711680*
%FSLAX44Y44*%
%MOMM*%
G71*
G04*
G04 #@! TF.SameCoordinates,8546EA9B-F6EB-4771-9ADB-03B1A7986510*
G04*
G04*
G04 #@! TF.FilePolarity,Positive*
G04*
G01*
G75*
%ADD11C,0.2540*%
%ADD15C,1.5500*%
%ADD16R,1.5500X1.5500*%
%ADD19C,1.3000*%
%ADD20R,1.3000X1.3000*%
%ADD22C,1.9500*%
G04:AMPARAMS|DCode=23|XSize=1.95mm|YSize=1.95mm|CornerRadius=0.4875mm|HoleSize=0mm|Usage=FLASHONLY|Rotation=90.000|XOffset=0mm|YOffset=0mm|HoleType=Round|Shape=RoundedRectangle|*
%AMROUNDEDRECTD23*
21,1,1.9500,0.9750,0,0,90.0*
21,1,0.9750,1.9500,0,0,90.0*
1,1,0.9750,0.4875,0.4875*
1,1,0.9750,0.4875,-0.4875*
1,1,0.9750,-0.4875,-0.4875*
1,1,0.9750,-0.4875,0.4875*
%
%ADD23ROUNDEDRECTD23*%
%ADD24C,1.5000*%
G36*
X1536700Y331470D02*
X958850D01*
Y529590D01*
X1536700D01*
Y331470D01*
D02*
G37*
%LPC*%
G36*
X1471930Y458469D02*
Y447510D01*
X1482889D01*
X1482634Y449448D01*
X1481395Y452438D01*
X1479425Y455005D01*
X1476858Y456975D01*
X1473868Y458214D01*
X1471930Y458469D01*
D02*
G37*
G36*
X1469390D02*
X1467452Y458214D01*
X1464462Y456975D01*
X1461895Y455005D01*
X1459925Y452438D01*
X1458686Y449448D01*
X1458431Y447510D01*
X1469390D01*
Y458469D01*
D02*
G37*
G36*
X1386840Y454721D02*
Y447040D01*
X1394521D01*
X1394377Y448130D01*
X1393466Y450329D01*
X1392017Y452217D01*
X1390129Y453666D01*
X1387930Y454577D01*
X1386840Y454721D01*
D02*
G37*
G36*
X1384300D02*
X1383210Y454577D01*
X1381011Y453666D01*
X1379123Y452217D01*
X1377674Y450329D01*
X1376763Y448130D01*
X1376619Y447040D01*
X1384300D01*
Y454721D01*
D02*
G37*
G36*
X1323036Y468959D02*
X1204264D01*
X1202777Y468663D01*
X1201517Y467821D01*
X1197326Y463630D01*
X1182240D01*
Y463371D01*
X1013460D01*
X1011973Y463075D01*
X1010713Y462233D01*
X1005887Y457407D01*
X1005045Y456147D01*
X1004749Y454660D01*
Y409486D01*
X1005045Y407999D01*
X1005887Y406739D01*
X1011335Y401292D01*
X1010376Y398978D01*
X1009954Y395770D01*
X1010376Y392562D01*
X1011615Y389572D01*
X1013585Y387005D01*
X1016152Y385035D01*
X1019142Y383796D01*
X1022350Y383374D01*
X1025558Y383796D01*
X1028548Y385035D01*
X1031115Y387005D01*
X1033085Y389572D01*
X1034324Y392562D01*
X1034746Y395770D01*
X1034324Y398978D01*
X1033085Y401968D01*
X1031115Y404535D01*
X1028548Y406505D01*
X1025558Y407744D01*
X1022350Y408166D01*
X1019142Y407744D01*
X1016828Y406786D01*
X1012519Y411095D01*
Y432316D01*
X1015059Y433870D01*
X1015539Y433671D01*
X1017475Y433416D01*
X1027225D01*
X1029161Y433671D01*
X1030965Y434418D01*
X1032513Y435607D01*
X1033702Y437155D01*
X1034449Y438959D01*
X1034704Y440895D01*
Y441885D01*
X1101767D01*
X1104693Y438959D01*
X1105953Y438117D01*
X1107440Y437821D01*
X1227886D01*
X1229372Y438117D01*
X1230633Y438959D01*
X1234724Y443050D01*
X1249810D01*
Y449456D01*
X1276981D01*
X1277522Y448151D01*
X1279171Y446001D01*
X1281321Y444352D01*
X1283824Y443315D01*
X1286510Y442961D01*
X1289196Y443315D01*
X1291699Y444352D01*
X1293849Y446001D01*
X1295498Y448151D01*
X1296535Y450654D01*
X1296889Y453340D01*
X1296535Y456026D01*
X1295498Y458530D01*
X1295406Y458649D01*
X1296659Y461189D01*
X1321427D01*
X1325285Y457331D01*
X1324745Y456026D01*
X1324391Y453340D01*
X1324745Y450654D01*
X1325782Y448151D01*
X1327431Y446001D01*
X1329581Y444352D01*
X1332084Y443315D01*
X1334770Y442961D01*
X1337456Y443315D01*
X1339959Y444352D01*
X1342109Y446001D01*
X1343758Y448151D01*
X1344795Y450654D01*
X1345149Y453340D01*
X1344795Y456026D01*
X1343758Y458530D01*
X1342109Y460679D01*
X1339959Y462328D01*
X1337456Y463365D01*
X1334770Y463719D01*
X1332084Y463365D01*
X1330779Y462825D01*
X1325783Y467821D01*
X1324523Y468663D01*
X1323036Y468959D01*
D02*
G37*
G36*
X1394521Y444500D02*
X1386840D01*
Y436819D01*
X1387930Y436963D01*
X1390129Y437874D01*
X1392017Y439323D01*
X1393466Y441211D01*
X1394377Y443410D01*
X1394521Y444500D01*
D02*
G37*
G36*
X1384300D02*
X1376619D01*
X1376763Y443410D01*
X1377674Y441211D01*
X1379123Y439323D01*
X1381011Y437874D01*
X1383210Y436963D01*
X1384300Y436819D01*
Y444500D01*
D02*
G37*
G36*
X1482889Y444970D02*
X1471930D01*
Y434011D01*
X1473868Y434266D01*
X1476858Y435505D01*
X1479425Y437475D01*
X1481395Y440042D01*
X1482634Y443032D01*
X1482889Y444970D01*
D02*
G37*
G36*
X1469390D02*
X1458431D01*
X1458686Y443032D01*
X1459925Y440042D01*
X1461895Y437475D01*
X1464462Y435505D01*
X1467452Y434266D01*
X1469390Y434011D01*
Y444970D01*
D02*
G37*
G36*
X1475535Y408594D02*
X1465785D01*
X1463849Y408339D01*
X1462045Y407592D01*
X1460497Y406403D01*
X1459308Y404855D01*
X1458561Y403051D01*
X1458306Y401115D01*
Y400125D01*
X1429512D01*
X1429456Y400113D01*
X1429400Y400123D01*
X1396432Y399170D01*
X1394610Y400940D01*
Y404010D01*
X1376530D01*
Y391424D01*
X1353531Y368424D01*
X1345060D01*
Y374830D01*
X1324480D01*
Y368424D01*
X1296800D01*
Y374830D01*
X1276220D01*
Y354250D01*
X1296800D01*
Y360655D01*
X1324480D01*
Y354250D01*
X1345060D01*
Y360655D01*
X1355140D01*
X1356626Y360951D01*
X1357887Y361793D01*
X1382024Y385930D01*
X1394610D01*
Y391345D01*
X1429568Y392355D01*
X1458306D01*
Y391365D01*
X1458561Y389429D01*
X1459308Y387626D01*
X1460497Y386077D01*
X1462045Y384888D01*
X1463849Y384141D01*
X1465785Y383886D01*
X1475535D01*
X1477471Y384141D01*
X1479274Y384888D01*
X1480823Y386077D01*
X1482012Y387626D01*
X1482759Y389429D01*
X1483014Y391365D01*
Y401115D01*
X1482759Y403051D01*
X1482012Y404855D01*
X1480823Y406403D01*
X1479274Y407592D01*
X1477471Y408339D01*
X1475535Y408594D01*
D02*
G37*
G36*
X1123950Y400017D02*
X1121329Y399672D01*
X1118887Y398660D01*
X1116789Y397051D01*
X1115180Y394953D01*
X1114168Y392511D01*
X1113823Y389890D01*
X1114168Y387269D01*
X1115180Y384827D01*
X1116789Y382729D01*
X1118887Y381120D01*
X1121329Y380108D01*
X1123950Y379763D01*
X1126571Y380108D01*
X1129013Y381120D01*
X1131111Y382729D01*
X1132720Y384827D01*
X1133732Y387269D01*
X1134077Y389890D01*
X1133732Y392511D01*
X1132720Y394953D01*
X1131111Y397051D01*
X1129013Y398660D01*
X1126571Y399672D01*
X1123950Y400017D01*
D02*
G37*
G36*
X1240790Y374751D02*
Y365810D01*
X1249732D01*
X1249545Y367226D01*
X1248508Y369729D01*
X1246859Y371879D01*
X1244709Y373528D01*
X1242206Y374565D01*
X1240790Y374751D01*
D02*
G37*
G36*
X1193800D02*
Y365810D01*
X1202742D01*
X1202555Y367226D01*
X1201518Y369729D01*
X1199869Y371879D01*
X1197719Y373528D01*
X1195216Y374565D01*
X1193800Y374751D01*
D02*
G37*
G36*
X1238250D02*
X1236834Y374565D01*
X1234331Y373528D01*
X1232181Y371879D01*
X1230532Y369729D01*
X1229495Y367226D01*
X1229308Y365810D01*
X1238250D01*
Y374751D01*
D02*
G37*
G36*
X1191260D02*
X1189844Y374565D01*
X1187341Y373528D01*
X1185191Y371879D01*
X1183542Y369729D01*
X1182505Y367226D01*
X1182318Y365810D01*
X1191260D01*
Y374751D01*
D02*
G37*
G36*
X1125220Y374449D02*
Y365760D01*
X1133909D01*
X1133732Y367111D01*
X1132720Y369553D01*
X1131111Y371651D01*
X1129013Y373260D01*
X1126571Y374272D01*
X1125220Y374449D01*
D02*
G37*
G36*
X1122680D02*
X1121329Y374272D01*
X1118887Y373260D01*
X1116789Y371651D01*
X1115180Y369553D01*
X1114168Y367111D01*
X1113991Y365760D01*
X1122680D01*
Y374449D01*
D02*
G37*
G36*
X1133909Y363220D02*
X1125220D01*
Y354531D01*
X1126571Y354708D01*
X1129013Y355720D01*
X1131111Y357329D01*
X1132720Y359427D01*
X1133732Y361869D01*
X1133909Y363220D01*
D02*
G37*
G36*
X1122680D02*
X1113991D01*
X1114168Y361869D01*
X1115180Y359427D01*
X1116789Y357329D01*
X1118887Y355720D01*
X1121329Y354708D01*
X1122680Y354531D01*
Y363220D01*
D02*
G37*
G36*
X1249732Y363270D02*
X1240790D01*
Y354328D01*
X1242206Y354515D01*
X1244709Y355551D01*
X1246859Y357201D01*
X1248508Y359350D01*
X1249545Y361854D01*
X1249732Y363270D01*
D02*
G37*
G36*
X1202742D02*
X1193800D01*
Y354328D01*
X1195216Y354515D01*
X1197719Y355551D01*
X1199869Y357201D01*
X1201518Y359350D01*
X1202555Y361854D01*
X1202742Y363270D01*
D02*
G37*
G36*
X1238250D02*
X1229308D01*
X1229495Y361854D01*
X1230532Y359350D01*
X1232181Y357201D01*
X1234331Y355551D01*
X1236834Y354515D01*
X1238250Y354328D01*
Y363270D01*
D02*
G37*
G36*
X1191260D02*
X1182318D01*
X1182505Y361854D01*
X1183542Y359350D01*
X1185191Y357201D01*
X1187341Y355551D01*
X1189844Y354515D01*
X1191260Y354328D01*
Y363270D01*
D02*
G37*
%LPD*%
D11*
X1428458Y446240D02*
X1470660D01*
X1385570Y445770D02*
X1428458Y446240D01*
X1429512Y396240D02*
X1470660D01*
X1385570Y394970D02*
X1429512Y396240D01*
X1323036Y465074D02*
X1334770Y453340D01*
X1204264Y465074D02*
X1323036D01*
X1192530Y453340D02*
X1204264Y465074D01*
X1186384Y459486D02*
X1192530Y453340D01*
X1013460Y459486D02*
X1186384D01*
X1008634Y454660D02*
X1013460Y459486D01*
X1008634Y409486D02*
Y454660D01*
Y409486D02*
X1022350Y395770D01*
X1334770Y364540D02*
X1355140D01*
X1385570Y394970D01*
X1239520Y364540D02*
X1252170Y377190D01*
X1316990D01*
X1385570Y445770D01*
X1022350D02*
X1103376D01*
X1107440Y441706D01*
X1227886D01*
X1239520Y453340D01*
X1158036Y364540D02*
X1192530D01*
X1157986Y364490D02*
X1158036Y364540D01*
X1123950Y364490D02*
X1157986D01*
X1192530Y364540D02*
X1239520D01*
X1286510D02*
X1334770D01*
X1239520Y453340D02*
X1286510D01*
D15*
X1334770D02*
D03*
X1286510D02*
D03*
X1239520Y364540D02*
D03*
X1192530D02*
D03*
D16*
X1334770D02*
D03*
X1286510D02*
D03*
X1239520Y453340D02*
D03*
X1192530D02*
D03*
D19*
X1385570Y445770D02*
D03*
D20*
Y394970D02*
D03*
D22*
X1470660Y446240D02*
D03*
X1022350Y395770D02*
D03*
D23*
X1470660Y396240D02*
D03*
X1022350Y445770D02*
D03*
D24*
X1123950Y364490D02*
D03*
Y389890D02*
D03*
M02*
